<svg height="480" viewBox="0 0 480 480" width="480" xmlns="http://www.w3.org/2000/svg"><path d="m287.6875 422.53125h75.699219l-13.03125-18.019531c-20.167969-27.875-38.992188-57.335938-55.9375-87.585938-27.148438-48.46875-49.8125-99.570312-67.355469-151.925781h-57.675781c8.050781 33.417969 17.90625 66.125 29.46875 98.03125 12.507812 28.644531 26.46875 56.738281 41.757812 84.03125 14.511719 25.84375 30.3125 51.136719 47.074219 75.46875zm0 0" fill="#d39c43"/><path d="m155.90625 164.96875h-.8125c-28.730469 85.46875-70.230469 166.074219-123.363281 239.542969l-13.03125 18.019531h75.769531c35.21875-51.105469 65.3125-105.269531 89.875-161.863281l.105469-.40625c-11.148438-31.054688-20.679688-62.84375-28.5-95.292969zm0 0" fill="#f3e0be"/><path d="m447.9375 404.105469c-75.84375-104.605469-127.386719-222.199219-152.71875-346.625h-62.84375c24.769531 130.550781 76.46875 254.28125 153.125 365.039062h75.800781zm0 0" fill="#b31a24"/></svg>